<mxfile host="app.diagrams.net" agent="Mozilla/5.0 (Windows NT 10.0; Win64; x64) AppleWebKit/537.36 (KHTML, like Gecko) Chrome/131.0.0.0 Safari/537.36 Edg/131.0.0.0" version="26.1.1">
  <diagram id="C5RBs43oDa-KdzZeNtuy" name="Page-1">
    <mxGraphModel dx="786" dy="477" grid="1" gridSize="10" guides="1" tooltips="1" connect="1" arrows="1" fold="1" page="1" pageScale="1" pageWidth="827" pageHeight="1169" math="0" shadow="0">
      <root>
        <mxCell id="WIyWlLk6GJQsqaUBKTNV-0" />
        <mxCell id="WIyWlLk6GJQsqaUBKTNV-1" parent="WIyWlLk6GJQsqaUBKTNV-0" />
        <mxCell id="WIyWlLk6GJQsqaUBKTNV-2" value="" style="rounded=0;html=1;jettySize=auto;orthogonalLoop=1;fontSize=11;endArrow=block;endFill=0;strokeWidth=1;shadow=0;labelBackgroundColor=none;edgeStyle=orthogonalEdgeStyle;" parent="WIyWlLk6GJQsqaUBKTNV-1" source="WIyWlLk6GJQsqaUBKTNV-3" edge="1">
          <mxGeometry relative="1" as="geometry">
            <mxPoint x="340" y="170" as="targetPoint" />
          </mxGeometry>
        </mxCell>
        <mxCell id="WIyWlLk6GJQsqaUBKTNV-3" value="Individual data in UK biobank (N&amp;gt;50,0000)" style="rounded=1;whiteSpace=wrap;html=1;fontSize=12;glass=0;strokeWidth=1;shadow=0;" parent="WIyWlLk6GJQsqaUBKTNV-1" vertex="1">
          <mxGeometry x="245" y="70" width="190" height="50" as="geometry" />
        </mxCell>
        <mxCell id="4M1V7Egi61zOUPNM_4ar-9" value="" style="edgeStyle=orthogonalEdgeStyle;rounded=0;orthogonalLoop=1;jettySize=auto;html=1;endArrow=block;endFill=0;" parent="WIyWlLk6GJQsqaUBKTNV-1" source="4M1V7Egi61zOUPNM_4ar-3" target="4M1V7Egi61zOUPNM_4ar-8" edge="1">
          <mxGeometry relative="1" as="geometry" />
        </mxCell>
        <mxCell id="4M1V7Egi61zOUPNM_4ar-3" value="Observational Study" style="rounded=1;whiteSpace=wrap;html=1;" parent="WIyWlLk6GJQsqaUBKTNV-1" vertex="1">
          <mxGeometry x="260" y="170" width="160" height="60" as="geometry" />
        </mxCell>
        <mxCell id="4M1V7Egi61zOUPNM_4ar-6" value="" style="endArrow=block;html=1;rounded=0;endFill=0;" parent="WIyWlLk6GJQsqaUBKTNV-1" edge="1">
          <mxGeometry width="50" height="50" relative="1" as="geometry">
            <mxPoint x="340" y="140" as="sourcePoint" />
            <mxPoint x="450" y="140" as="targetPoint" />
          </mxGeometry>
        </mxCell>
        <mxCell id="4M1V7Egi61zOUPNM_4ar-7" value="&lt;ul&gt;&lt;li&gt;Missingness in bone traits&lt;/li&gt;&lt;li&gt;Missingness in fratures&lt;/li&gt;&lt;li&gt;Missingness in sleep duration&lt;/li&gt;&lt;li&gt;Missingness in sleep quality&lt;/li&gt;&lt;/ul&gt;" style="rounded=1;whiteSpace=wrap;html=1;align=left;labelBackgroundColor=none;labelBorderColor=none;spacingLeft=-20;" parent="WIyWlLk6GJQsqaUBKTNV-1" vertex="1">
          <mxGeometry x="450" y="100" width="220" height="80" as="geometry" />
        </mxCell>
        <mxCell id="4M1V7Egi61zOUPNM_4ar-8" value="&lt;b&gt;&lt;font style=&quot;font-size: 15px;&quot;&gt;Step 1:&amp;nbsp;&lt;/font&gt;&lt;/b&gt;&lt;div&gt;&lt;b&gt;Exposures&lt;/b&gt;: sleep duration; sleep quality (PSQI)&lt;br&gt;&lt;/div&gt;&lt;div&gt;&lt;br&gt;&lt;/div&gt;&lt;div&gt;&lt;b&gt;Outcomes&lt;/b&gt;: femoral neck BMD; lumbar spine TBS; Major Osteoporotic Fracture&lt;/div&gt;&lt;div&gt;&lt;br&gt;&lt;/div&gt;&lt;div&gt;&lt;b&gt;Statistical analysis&lt;/b&gt;: linear regression &amp;amp; logistic regression&lt;/div&gt;&lt;div&gt;&lt;br&gt;&lt;/div&gt;" style="whiteSpace=wrap;html=1;rounded=1;align=left;labelPosition=center;verticalLabelPosition=middle;verticalAlign=middle;labelBackgroundColor=none;spacingLeft=0;spacing=10;" parent="WIyWlLk6GJQsqaUBKTNV-1" vertex="1">
          <mxGeometry x="220" y="270" width="240" height="170" as="geometry" />
        </mxCell>
      </root>
    </mxGraphModel>
  </diagram>
</mxfile>
